<svg xmlns="http://www.w3.org/2000/svg" width="17.015" height="17.014" viewBox="0 0 17.015 17.014">
  <g id="bus" transform="translate(-4876.453 502.063)">
    <path id="Trazado_622" data-name="Trazado 622" d="M0,0C0,2.734,0,5.469.007,8.2c0,.253-.051.305-.3.3q-8.2-.013-16.406,0c-.253,0-.305-.051-.305-.3q.015-8.2,0-16.406c0-.253.052-.305.305-.3q8.2.013,16.406,0c.253,0,.3.051.3.3C0-5.469,0-2.734,0,0" transform="translate(4893.461 -493.556)" fill="#ff4235"/>
    <path id="Trazado_623" data-name="Trazado 623" d="M0,0C0-.991,0-1.983,0-2.974a1.149,1.149,0,0,1,1.276-1.3c.325-.006.651-.01.977,0,.38.013.661.02.889-.446.307-.625,1.007-.343,1.548-.367a.709.709,0,0,1,.748.572c.057.224.179.244.364.241.5-.007.992-.013,1.487,0a1.227,1.227,0,0,1,1.26,1.306q.008,3.016,0,6.032a.745.745,0,0,1-.722.871c-.228.037-.259.136-.27.332a.755.755,0,0,1-.741.813c-.437.01-.744-.291-.777-.825-.015-.247-.1-.308-.33-.305q-1.443.013-2.888,0c-.224,0-.319.045-.332.3a.778.778,0,0,1-.777.831c-.434-.005-.7-.3-.741-.853-.012-.16-.035-.245-.223-.285C.154,3.822,0,3.628,0,3.016,0,2.011,0,1,0,0" transform="translate(4880.742 -493.732)" fill="#fff"/>
    <path id="Trazado_624" data-name="Trazado 624" d="M0,0C-.975,0-1.951,0-2.927,0-3.5,0-3.68-.186-3.685-.765c0-.439-.009-.877,0-1.315s.218-.66.649-.662q3.054-.009,6.107,0a.6.6,0,0,1,.658.66c.009.467.008.933,0,1.4A.6.6,0,0,1,3.054,0C2.036.006,1.018,0,0,0" transform="translate(4884.965 -493.108)" fill="#ff4235"/>
    <path id="Trazado_625" data-name="Trazado 625" d="M0,0C-.992,0-1.983,0-2.975,0c-.493,0-.743-.218-.735-.618.007-.384.247-.588.72-.589q2.976,0,5.95,0c.481,0,.752.232.743.617C3.695-.223,3.431,0,2.975,0,1.983,0,.992,0,0,0" transform="translate(4884.993 -496.267)" fill="#ff4235"/>
    <path id="Trazado_626" data-name="Trazado 626" d="M0,0A.641.641,0,0,1-.659-.676a.684.684,0,0,1,.648-.662.671.671,0,0,1,.679.672A.638.638,0,0,1,0,0" transform="translate(4881.871 -490.664)" fill="#ff4436"/>
    <path id="Trazado_627" data-name="Trazado 627" d="M0,0A.652.652,0,0,1-.656.679.649.649,0,0,1-1.323.054a.687.687,0,0,1,.639-.71A.662.662,0,0,1,0,0" transform="translate(4888.709 -491.343)" fill="#ff4436"/>
  </g>
</svg>
