<svg xmlns="http://www.w3.org/2000/svg" xmlns:xlink="http://www.w3.org/1999/xlink" width="33" height="33" viewBox="0 0 33 33">
  <defs>
    <clipPath id="clip-path">
      <rect id="Rect치ngulo_10" data-name="Rect치ngulo 10" width="28.9" height="28.6" transform="translate(6.8 6)"/>
    </clipPath>
  </defs>
  <g id="icones_transports-06" data-name="icones transports-06" transform="translate(-4.8 -3.8)">
    <rect id="Rect치ngulo_8" data-name="Rect치ngulo 8" width="33" height="33" transform="translate(4.8 3.8)" fill="#d0041d"/>
    <g id="Grupo_8" data-name="Grupo 8">
      <g id="Grupo_7" data-name="Grupo 7" clip-path="url(#clip-path)">
        <g id="Grupo_6" data-name="Grupo 6">
          <g id="Grupo_5" data-name="Grupo 5" clip-path="url(#clip-path)">
            <g id="Grupo_4" data-name="Grupo 4">
              <path id="Trazado_10" data-name="Trazado 10" d="M21.7,6H34.8c.8,0,.8.2.8.9V34.2H8.4c-.9,0-1.2-.2-1.2-1.2V6H20.9a3.922,3.922,0,0,1-.4,1.8,1.481,1.481,0,0,0,.2,1.3c.1.2.3.2.5.2.2-.1.2-.2.2-.4C20.9,7.8,21.6,7,21.7,6ZM23,28.3h0c.1.2.3.2.5.1v.1s-.1.1,0,.1c0,.1.1.1.1.2v2.9c-.2.3-.2.5.1.7h0c.2.3.4.3.7,0h0c.2,0,.2-.1.1-.2v-.9c.2-.2.2-.3,0-.5v-.4a1.275,1.275,0,0,0,0-1.2v-.4a.778.778,0,0,1,.8-.2,10.632,10.632,0,0,0,.1,3.1c.2.5.4.9,1,.9s.9-.4,1.1-1a6.918,6.918,0,0,0,0-3.5c-.3-1.1-1.2-1.2-2-.3l-.5-.5h0c-.1-.2-.3-.2-.5-.1v.1a2.769,2.769,0,0,1-.9-.1c-.3-.2-.5-.2-.7.1h0c-.2,0-.2.1-.1.2h.1v-.1c0,.1-.1.3-.1.4C22.8,28.2,22.8,28.3,23,28.3Zm-9.1-2.7c.1.3.3.2.5.1l.1-.1c.2-.3,0-.6-.1-.9v-.2a1.645,1.645,0,0,0-.2-1c-.1-.3-.1-.6-.2-.9,0-.1-.1-.3-.1-.4h0a2.934,2.934,0,0,0-.4-1.6h0c-.3-.2-.5-.3-.7.1h0a1.431,1.431,0,0,0-.3,1.1h0c0,.2-.1.4-.1.6a.6.6,0,0,1-.1.4c0,.1,0,.1-.1.2-.2.2-.1.6-.4.6-.8-.6-.3-1.4-.4-2.1-.1-.8-.4-1.2-1.3-1.2s-.8.6-.8,1.1v2.8c0,.4-.3,1.1.4,1.2.6.1,1.4.3,1.7-.6h.2v.5c.2.3.4.3.7.1h0c.2-.1.2-.3.2-.5h0c.2-.3.6-.2.9-.3.1.1.1.1.2.1a9.44,9.44,0,0,0,.3.9Zm1.7,3.8c.1,0,.1,0,.2.1h0a3.674,3.674,0,0,0,2.3.1c.9-.3,1.4.1,2.1.3.1.2-.4.5.1.7a.618.618,0,0,0,.8-.5c0-.3.9-.3.4-.9.1-.3.2-.5.3-.8s.5-.7,0-.8a.618.618,0,0,0-.8.5,1.346,1.346,0,0,1-.5.9c-.6.1-.5-.2-.4-.6s.5-.7.3-1.1c-.8,0-1.1.6-1.3,1.2a.569.569,0,0,1-.7.4c-.4-.2-.2-.7-.1-.8.7-.4.4-1,.6-1.5a1.039,1.039,0,0,1,1.3-.2,6.374,6.374,0,0,0-.2-.9v-.2c.2,0,.3-.1.5-.1h0c.1.1.1.2.2.3a2.016,2.016,0,0,0,1.1.3c.4,0,.8,0,.8-.6s-.3-.4-.7-.4-.7-.1-.7-.5c0-.5.2-.7.6-.7s.6-.1.6-.5-.2-.5-.6-.5a.53.53,0,0,1-.6-.6.505.505,0,0,1,.7-.5c.7.2.6-.2.6-.7a1.493,1.493,0,0,0-.3-.7,12.09,12.09,0,0,1-.5-1.8c-.1-.3-.1-.6-.5-.5-.3.1-.3.4-.3.6-.1.7.4,1.2.5,1.8a4.233,4.233,0,0,1-.7.5c-.6-.8-1.3-.7-2.1-.2h0c-.3,0-.5.2-.4.5h0c-.3.1-.6.1-1,.2-.3-.4-.6-.8-1.1-.6-.4.1-1.1-.4-1.1.5v4.2c0,.3.1.5.5.5s.4-.3.4-.6V23.7c.9.7.5,1.7,1.1,2.2-.3.3-1,.1-1,.8a.215.215,0,0,0,.2.2,1.087,1.087,0,0,0,1-.7c.1-.1.1-.2.2-.3a.844.844,0,0,0,.2-.7,4.486,4.486,0,0,0-.5-1.9c0-.1,0-.1.1-.2.3-.1.4-.2.2-.5v-.5h.5c.2,1.2-.4,2.6.6,3.6-.1.2-.1.4-.2.6A1.906,1.906,0,0,0,17.2,28c0,.5-.2,1.1-1,.9a1.421,1.421,0,0,1,.2-.6c.1-.3.4-.6.1-.8a.712.712,0,0,0-.8.3c-.5-.6-1-1.2-1.8-.4-.6.5-1,1-.7,1.7s.9.5,1.5.4A2.768,2.768,0,0,0,15.6,29.4ZM13.2,9.7a6.136,6.136,0,0,0,3.1,1.6c-.8-1.2-2.1-1.4-2.8-2.3a4.629,4.629,0,0,0-1.6-1.5A2.273,2.273,0,0,0,13.2,9.7Zm14.4,7c.7.4,1.5.9,2.2,1.3.3.1.7.3.9-.1s-.2-.6-.5-.7a6.117,6.117,0,0,0-1.2-.5c-.1-.2-.2-.4-.5-.3-.1,0-.2-.1-.3-.1h-.1c-.2-.1-.4-.1-.5-.2a1.244,1.244,0,0,0-1.7.1A10.926,10.926,0,0,1,27.6,16.7Zm2,4.3H29a.569.569,0,0,0-.7-.4c-.3.1-.3.4-.3.6v4.1c0,.3,0,.5.4.5.3,0,.3-.2.4-.5a2.4,2.4,0,0,1,.2-1.4c.2.6.4,1,.6,1.5a.419.419,0,0,0,.6.3c.3-.1.3-.3.3-.5V21.1c0-.2,0-.5-.3-.5C29.8,20.5,29.7,20.7,29.6,21Zm-6.4-5.1c.4-.1.9-.3,1.3-.4,1.6-.7,1.9-1.9.8-3.3-.3-.4-.5-.8-.9-1-2.4-2.4-5.3-1.2-7,.4a2.634,2.634,0,0,0-.2,3.6c1.3,1.6,3.2,2,5,2.3.5.1.8-.3.7-.8C22.8,16.4,23.1,16.2,23.2,15.9Zm9.1,14.6c.6.4.5,1,.6,1.5.1.4.2.8.8.5.4-.2.3-.5.1-.8a2.436,2.436,0,0,1-.2-2.2,1.747,1.747,0,0,0-.4-1.9c-.4-.4-1-.3-1.5-.3-.3,0-.4.2-.4.5V32c0,.3.1.5.4.5.4,0,.4-.2.4-.5A2.622,2.622,0,0,1,32.3,30.5Zm-4.1-1v1.6c0,.8.4,1.5,1.2,1.5s1.2-.7,1.2-1.5V28c0-.3.1-.7-.5-.7s-.4.5-.4.8v2.6c0,.3.1.8-.4.8-.4,0-.3-.4-.3-.7V28c0-.3-.1-.6-.5-.6s-.4.3-.4.6A6.622,6.622,0,0,1,28.2,29.5Zm5.3-4.3c-.2-1.3-.5-2.7-.7-4-.1-.3-.2-.7-.6-.6-.4,0-.4.3-.5.6-.3,1.3-.5,2.6-.8,3.9,0,.2-.2.5.2.7.3.1.5-.1.6-.4q.6-1.2,1.2,0c.1.2.2.4.5.4C33.6,25.7,33.6,25.4,33.5,25.2ZM25,22.6a6.522,6.522,0,0,0,.2,2.4,1.084,1.084,0,0,0,1.1.8.974.974,0,0,0,1-.8,8.734,8.734,0,0,0,0-3.6,1.158,1.158,0,0,0-.9-1c-.5-.1-.7.2-1.1.5C24.8,21.4,25.1,22,25,22.6Zm-2.1.5h0v1.6c-.1,1,.4,1.2,1.2,1.1.3,0,.6,0,.6-.5,0-.4-.1-.6-.5-.6-.6,0-.6-.4-.6-.8V21.5c0-.3.2-.9-.3-.9-.6,0-.4.5-.4.9C22.9,22,22.9,22.5,22.9,23.1ZM17,16.6a4.227,4.227,0,0,0-4.5.9,1.238,1.238,0,0,0,1.7-.1A5.117,5.117,0,0,1,17,16.6ZM28,8.3A10.639,10.639,0,0,0,25.4,10c-.2.1-.2.3,0,.5.1.2.3.2.5,0C26.6,10,27.7,9.7,28,8.3Z" fill="#ce091f"/>
              <path id="Trazado_11" data-name="Trazado 11" d="M21.7,6c0,1-.8,1.8-.4,2.9.1.1,0,.3-.2.4a.365.365,0,0,1-.5-.2,1.481,1.481,0,0,1-.2-1.3A9.512,9.512,0,0,0,20.8,6Z" fill="#48842c"/>
              <path id="Trazado_12" data-name="Trazado 12" d="M23,16.7c0,.5-.3.9-.7.8-1.9-.3-3.7-.7-5-2.3a2.539,2.539,0,0,1,.2-3.6c1.6-1.6,4.6-2.8,7-.4a.64.64,0,0,1-.7.5h0a.758.758,0,0,0-.4-.2,9.971,9.971,0,0,1-1.6-.2,3.373,3.373,0,0,0-3.5,1.6c-.3.9.3,2.1,1.5,2.9C20.7,16.5,22,16.3,23,16.7Z" fill="#f6cb0e"/>
              <path id="Trazado_13" data-name="Trazado 13" d="M23.7,11.7a.64.64,0,0,0,.7-.5,2.189,2.189,0,0,1,.9,1c1.1,1.4.8,2.6-.8,3.3a4.951,4.951,0,0,1-1.3.4,4.748,4.748,0,0,1-4-1.8,1.054,1.054,0,0,1,.4-1.7,2.768,2.768,0,0,1,1.3-.3l.2-.2c.5,0,.9-.1,1.4-.1.1,0,.3.1.4.1l.5.5c.1.2.1.5.2.7a.9.9,0,0,1-1,.8c-.5,0-.7-.2-.8-.7-.1-.3-.2-.5-.5-.4a1.7,1.7,0,0,0-1,.6c-.2.3,0,.5.2.7a2.411,2.411,0,0,0,3.5,0c.6-.5.9-1.1.2-1.8A2.651,2.651,0,0,0,23.7,11.7Z" fill="#f5c910"/>
              <path id="Trazado_14" data-name="Trazado 14" d="M12.3,23a.6.6,0,0,1,.1-.4c0-.2.1-.4.1-.6h0c.3-.3.2-.7.3-1.1h0a1.7,1.7,0,0,0,.7-.1h0a2.934,2.934,0,0,0,.4,1.6h0c0,.1.1.3.1.4.1.3.1.6.2.9,0,.3-.1.7.2,1v.2c0,.3.1.6.1.9l-.1.1c-.2,0-.3-.1-.5-.1h0c0-.3,0-.5-.3-.6-.1,0-.1,0-.2-.1-.4-.2-.7-.3-.9.3h0a.764.764,0,0,0-.2.5h0a1.7,1.7,0,0,1-.7-.1v-.5c.3-.1.5-.2.4-.5,0-.1-.2-.2-.2-.1-.4.1-.4.4-.4.7-.3.9-1.1.7-1.7.6-.7-.1-.4-.8-.4-1.2a26.152,26.152,0,0,1,0-2.8c0-.5-.2-1.1.8-1.1.9,0,1.2.4,1.3,1.2.1.7-.4,1.5.4,2.1.3,0,.2-.4.4-.6A2.142,2.142,0,0,0,12.3,23Zm-1.5,1.2a.513.513,0,0,0-.4-.6c-.5-.1-.4.3-.4.6,0,.2-.1.6.4.5C10.8,24.7,10.8,24.5,10.8,24.2Zm2.5-1.7c-.5.3-.5.7-.4,1.2,0,.2.2.2.4.1.5-.3-.2-.7.1-1A1.007,1.007,0,0,1,13.3,22.5Z" fill="#f4e8e6"/>
              <path id="Trazado_15" data-name="Trazado 15" d="M32.3,30.5a2.4,2.4,0,0,0-.2,1.4c0,.3-.1.5-.4.5s-.4-.2-.4-.5V27.7c0-.3.1-.5.4-.5.5,0,1.1-.2,1.5.3a1.679,1.679,0,0,1,.4,1.9,2.436,2.436,0,0,0,.2,2.2c.2.4.3.6-.1.8-.5.3-.6-.2-.8-.5C32.7,31.5,32.9,30.9,32.3,30.5Z" fill="#f0d5d7"/>
              <path id="Trazado_16" data-name="Trazado 16" d="M29.6,21c0-.3.2-.5.5-.4s.3.3.3.5v4.1c0,.2,0,.5-.3.5a.486.486,0,0,1-.6-.3c-.2-.4-.3-.9-.6-1.5-.3.5-.1,1-.2,1.4a.51.51,0,0,1-.4.5c-.4,0-.4-.2-.4-.5V21.2c0-.2-.1-.5.2-.6a.529.529,0,0,1,.7.4,8.929,8.929,0,0,0,.6,2A7.5,7.5,0,0,0,29.6,21Z" fill="#f5e0e1"/>
              <path id="Trazado_17" data-name="Trazado 17" d="M16.9,25.8c-.6-.5-.3-1.5-1.1-2.2v1.5c0,.3,0,.6-.4.6a.472.472,0,0,1-.5-.5V21c0-.9.7-.4,1.1-.5.5-.1.8.3,1.1.6.1.3.1.6.2.9v.5c-.1.2-.1.3-.2.5,0,.1,0,.1-.1.2a1.758,1.758,0,0,0,.5,1.9.844.844,0,0,1-.2.7Zm-1.2-3.6c.1.2-.1.6.4.6.3,0,.4-.3.4-.6s-.1-.6-.5-.6S15.8,21.9,15.7,22.2Z" fill="#f1dcdc"/>
              <path id="Trazado_18" data-name="Trazado 18" d="M28.2,29.5V27.9c0-.3,0-.5.4-.6.4,0,.5.2.5.6v2.8c0,.3-.1.7.3.7.5,0,.4-.4.4-.8V28c0-.3-.2-.7.4-.8.5,0,.5.4.5.7V31c0,.8-.4,1.5-1.2,1.5s-1.2-.7-1.2-1.5A7.569,7.569,0,0,1,28.2,29.5Z" fill="#f1dcdc"/>
              <path id="Trazado_19" data-name="Trazado 19" d="M33.5,25.2c.1.2.1.5-.2.5s-.4-.1-.5-.4q-.6-1.2-1.2,0c-.1.3-.3.5-.6.4-.4-.1-.2-.4-.2-.7.3-1.3.5-2.6.8-3.9.1-.3.1-.6.5-.6a.526.526,0,0,1,.6.6C33,22.5,33.3,23.9,33.5,25.2Z" fill="#f5e0e1"/>
              <path id="Trazado_20" data-name="Trazado 20" d="M25,22.6c.2-.6-.2-1.2.4-1.7a1.433,1.433,0,0,1,1.1-.5,1.174,1.174,0,0,1,.9,1,8.734,8.734,0,0,1,0,3.6c-.1.5-.5.7-1,.8a1.011,1.011,0,0,1-1.1-.8A4.986,4.986,0,0,1,25,22.6Zm.7.5c.2.6-.3,1.6.5,1.6s.5-1,.5-1.6c0-.5.3-1.5-.4-1.5C25.5,21.6,25.9,22.6,25.7,23.1Z" fill="#f5e0e1"/>
              <path id="Trazado_21" data-name="Trazado 21" d="M25.5,27.8c.8-.9,1.7-.8,2,.3a6.915,6.915,0,0,1,0,3.5c-.2.6-.5,1-1.1,1s-.8-.4-1-.9a8.1,8.1,0,0,1-.1-3.1A2.353,2.353,0,0,0,25.5,27.8ZM26.9,30c-.2-.5.3-1.6-.5-1.6s-.5,1-.5,1.6c0,.5-.3,1.5.5,1.4C27.2,31.4,26.8,30.5,26.9,30Z" fill="#f5e0e1"/>
              <path id="Trazado_22" data-name="Trazado 22" d="M23.5,12.4l-.5-.5c-.1-.1-.2-.2-.4-.1-.5,0-.9.1-1.4.1l-.2.2a2.768,2.768,0,0,0-1.3.3,1.054,1.054,0,0,0-.4,1.7,4.5,4.5,0,0,0,4,1.8c-.1.2-.4.4-.2.8-1.1-.4-2.3-.2-3.3-1-1.1-.9-1.8-2-1.5-2.9a3.3,3.3,0,0,1,3.5-1.6,7.772,7.772,0,0,0,1.6.2.758.758,0,0,0,.4.2h0a4.349,4.349,0,0,1,.6.7,1.421,1.421,0,0,1-.6.2C23.6,12.5,23.6,12.4,23.5,12.4Z" fill="#cc1a19"/>
              <path id="Trazado_23" data-name="Trazado 23" d="M18.7,26.7c-.2.5.1,1.2-.6,1.5a.476.476,0,0,0,.1.8.505.505,0,0,0,.7-.4c.2-.6.5-1.2,1.3-1.2.2.4-.2.7-.3,1.1-.1.3-.3.7.4.6.2.9.7.4,1.1.2.5.6-.4.5-.4.9-.3-.1-.6-.1-.9-.2-.7-.2-1.2-.6-2.1-.3a3.673,3.673,0,0,1-2.3-.1l.5-.5c.8.2,1-.4,1-.9a1.848,1.848,0,0,1,1.1-1.7C18.4,26.4,18.6,26.4,18.7,26.7Z" fill="#efba14"/>
              <path id="Trazado_24" data-name="Trazado 24" d="M20.6,20.8a4.233,4.233,0,0,1,.7-.5c.3-.1.6-.1.8-.2.1.2.2.5.3.7.1.4.2.9-.6.7a.505.505,0,0,0-.7.5.53.53,0,0,0,.6.6c.3,0,.6.1.6.5s-.2.5-.6.5c-.5,0-.7.3-.6.7a.505.505,0,0,0,.7.5c.3,0,.7-.2.7.4s-.4.6-.8.6a1.431,1.431,0,0,1-1.1-.3c-.1-.1-.1-.2-.2-.3h0c-.4-.8.2-1.7,0-2.5A3.055,3.055,0,0,1,20.6,20.8Z" fill="#f4e8e6"/>
              <path id="Trazado_25" data-name="Trazado 25" d="M20.6,20.8a3.055,3.055,0,0,0-.2,1.9c.2.8-.4,1.6,0,2.5-.2,0-.3.1-.5.1-.2-.1.3-.8-.5-.6-.5.2-.7-.2-.7-.6a4.854,4.854,0,0,1,0-1.7c.1-.5.1-1.1.9-.9.3.1.3-.2.3-.3,0-.3,0-.5-.3-.7s-.7,0-1,0A1.359,1.359,0,0,1,20.6,20.8Z" fill="#cb1a2c"/>
              <path id="Trazado_26" data-name="Trazado 26" d="M22.9,23.1V21.5c0-.3-.2-.9.4-.9.5,0,.3.6.3.9v2.4c0,.4,0,.9.6.8.4,0,.5.2.5.6s-.3.4-.6.5c-.9.1-1.4-.1-1.2-1.1a8.533,8.533,0,0,0,0-1.6Z" fill="#f1dcdc"/>
              <path id="Trazado_27" data-name="Trazado 27" d="M18.5,20.6a3.352,3.352,0,0,1,1,0c.3.1.3.4.3.7,0,.2.1.4-.3.3-.8-.2-.8.4-.9.9a4.854,4.854,0,0,0,0,1.7c.1.4.3.8.7.6.7-.3.3.4.5.6v.2c-.4.4-.9.2-1.4.3-1.1-1.1-.5-2.4-.6-3.6.1-.4.2-.7.3-1.1h0a1.538,1.538,0,0,1,.4-.6Z" fill="#f5e0e1"/>
              <path id="Trazado_28" data-name="Trazado 28" d="M23.6,31.7V28.8l.1-.1c0-.1-.1-.1-.1-.2v-.1c-.1-.2-.3-.1-.5-.1h0a.349.349,0,0,0-.1-.2c0-.1.1-.3.1-.4.5-.1,1.1.2,1.6-.2v-.1a.9.9,0,0,1,.5.1h0v.7c-.1.1-.3.1-.4.2a.365.365,0,0,0-.2.5v.4a2.437,2.437,0,0,0,0,1.2v1.8c0,.1,0,.2-.1.2h-.7A4.5,4.5,0,0,1,23.6,31.7Z" fill="#fefefe"/>
              <path id="Trazado_29" data-name="Trazado 29" d="M17,16.6a3.558,3.558,0,0,0-2.7.9,1.36,1.36,0,0,1-1.7.1A3.9,3.9,0,0,1,17,16.6Z" fill="#55782c"/>
              <path id="Trazado_30" data-name="Trazado 30" d="M14,27.5c.8-.8,1.3-.2,1.8.4v.6c-.3.2-.6.5-.9.7-.7,0-1-.3-.9-1C14,27.9,14.3,27.7,14,27.5Z" fill="#d2261d"/>
              <path id="Trazado_31" data-name="Trazado 31" d="M28,8.3c-.3,1.4-1.4,1.7-2.2,2.3a.446.446,0,0,1-.5,0,.446.446,0,0,1,0-.5A10.6,10.6,0,0,1,28,8.3Z" fill="#48842c"/>
              <path id="Trazado_32" data-name="Trazado 32" d="M27.6,16c.2.1.4.1.5.2h.1c.1,0,.2.1.3.1a.55.55,0,0,0,.5.3,6.117,6.117,0,0,0,1.2.5c.3.1.7.2.5.7-.2.4-.6.2-.9.1-.8-.4-1.5-.9-2.2-1.3Z" fill="#48842c"/>
              <path id="Trazado_33" data-name="Trazado 33" d="M22.1,20.1c-.3.1-.6.1-.8.2a12.09,12.09,0,0,1-.5-1.8c0-.3,0-.6.3-.6.4-.1.4.2.5.5A15.426,15.426,0,0,0,22.1,20.1Z" fill="#48842c"/>
              <path id="Trazado_34" data-name="Trazado 34" d="M13.5,9c.7.9,2,1.1,2.8,2.3a6.136,6.136,0,0,1-3.1-1.6C13.3,9.5,13.4,9.2,13.5,9Z" fill="#48842c"/>
              <path id="Trazado_35" data-name="Trazado 35" d="M21.4,29.2c-.4.3-.9.7-1.1-.2a1.623,1.623,0,0,0,.5-.9c.1-.4.5-.7.8-.5.5.2.1.6,0,.8C21.7,28.7,21.5,28.9,21.4,29.2Z" fill="#f5c910"/>
              <path id="Trazado_36" data-name="Trazado 36" d="M13.5,9c-.1.2-.2.5-.3.7-.7-.5-1.4-1-1.3-2.1A3.638,3.638,0,0,1,13.5,9Z" fill="#55782c"/>
              <path id="Trazado_37" data-name="Trazado 37" d="M14,27.5c.3.2,0,.5,0,.7-.2.7.2,1,.9,1h0v.4c-.6.1-1.2.3-1.5-.4C12.9,28.4,13.4,27.9,14,27.5Z" fill="#f5c910"/>
              <path id="Trazado_38" data-name="Trazado 38" d="M15.7,28.4v-.6a.712.712,0,0,1,.8-.3c.3.2,0,.5-.1.8-.1.2-.3.4-.2.6l-.5.5h0C15.7,29.1,15.7,28.8,15.7,28.4Z" fill="#f5c910"/>
              <path id="Trazado_39" data-name="Trazado 39" d="M27.6,16v.6c-.5-.2-1.1-.4-1.7-.6A1.354,1.354,0,0,1,27.6,16Z" fill="#55782c"/>
              <path id="Trazado_40" data-name="Trazado 40" d="M18.5,25.8c.5,0,1,.1,1.4-.3.1.3.1.6.2.9-.5-.2-.9-.3-1.3.2-.1-.2-.3-.2-.5-.3A1.689,1.689,0,0,1,18.5,25.8Z" fill="#cb1a2c"/>
              <path id="Trazado_41" data-name="Trazado 41" d="M16.9,25.8h.4c-.1.1-.1.2-.2.3a1.087,1.087,0,0,1-1,.7.215.215,0,0,1-.2-.2C15.9,25.9,16.6,26.1,16.9,25.8Z" fill="#d2261d"/>
              <path id="Trazado_42" data-name="Trazado 42" d="M29.6,21v2a8.929,8.929,0,0,1-.6-2Z" fill="#cb1a2c"/>
              <path id="Trazado_43" data-name="Trazado 43" d="M18.1,21.1c-.1.4-.2.7-.3,1.1h-.5c-.1-.3-.1-.6-.2-.9A4.4,4.4,0,0,1,18.1,21.1Z" fill="#cb1a2c"/>
              <path id="Trazado_44" data-name="Trazado 44" d="M17.5,25.1a1.847,1.847,0,0,1-.5-1.9A3.394,3.394,0,0,1,17.5,25.1Z" fill="#cb1a2c"/>
              <path id="Trazado_45" data-name="Trazado 45" d="M20.1,29.9c.3.1.6.1.9.2a.618.618,0,0,1-.8.5C19.7,30.4,20.2,30.1,20.1,29.9Z" fill="#f5c910"/>
              <path id="Trazado_46" data-name="Trazado 46" d="M24.5,28.8a.365.365,0,0,1,.2-.5c.2,0,.4.1.4-.2v-.7l.5.5a1.854,1.854,0,0,0-.2.7A.631.631,0,0,0,24.5,28.8Z" fill="#d75162"/>
              <path id="Trazado_47" data-name="Trazado 47" d="M11.4,25.1c0-.3,0-.6.4-.7a.349.349,0,0,1,.2.1c.1.3-.1.5-.4.5C11.6,25.1,11.5,25.1,11.4,25.1Z" fill="#f5e0e1"/>
              <path id="Trazado_48" data-name="Trazado 48" d="M15.7,28.4v1c-.1,0-.1,0-.2-.1-.2-.3-.5-.2-.7-.2h0A5.5,5.5,0,0,0,15.7,28.4Z" fill="#efba14"/>
              <path id="Trazado_49" data-name="Trazado 49" d="M13.9,22.4a3.167,3.167,0,0,1-.4-1.6A2.726,2.726,0,0,1,13.9,22.4Z" fill="#f5e0e1"/>
              <path id="Trazado_50" data-name="Trazado 50" d="M24.6,27.4c-.5.4-1.1.2-1.6.2v.1h-.1a.349.349,0,0,1,.1-.2h0a1.7,1.7,0,0,0,.7-.1A1.387,1.387,0,0,1,24.6,27.4Z" fill="#f4e8e6"/>
              <path id="Trazado_51" data-name="Trazado 51" d="M24.5,30.3a2.437,2.437,0,0,1,0-1.2A1.258,1.258,0,0,1,24.5,30.3Z" fill="#d75162"/>
              <path id="Trazado_52" data-name="Trazado 52" d="M14.8,29.2c.3,0,.5-.1.7.2a2.353,2.353,0,0,1-.8.2A.6.6,0,0,0,14.8,29.2Z" fill="#d2261d"/>
              <path id="Trazado_53" data-name="Trazado 53" d="M12.6,25.1c.2-.5.5-.5.9-.3C13.2,24.9,12.8,24.8,12.6,25.1Z" fill="#f5e0e1"/>
              <path id="Trazado_54" data-name="Trazado 54" d="M12.8,20.8c0,.4.1.8-.3,1.1A1.431,1.431,0,0,1,12.8,20.8Z" fill="#f5e0e1"/>
              <path id="Trazado_55" data-name="Trazado 55" d="M14.4,24.6c-.3-.3-.2-.6-.2-1A1.978,1.978,0,0,1,14.4,24.6Z" fill="#f5e0e1"/>
              <path id="Trazado_56" data-name="Trazado 56" d="M29,16.7a.55.55,0,0,1-.5-.3C28.7,16.3,28.8,16.5,29,16.7Z" fill="#55782c"/>
              <path id="Trazado_57" data-name="Trazado 57" d="M23.7,32.4h.7A.385.385,0,0,1,23.7,32.4Z" fill="#d75162"/>
              <path id="Trazado_58" data-name="Trazado 58" d="M11.7,25.5a1.7,1.7,0,0,1,.7.1C12.1,25.8,11.9,25.9,11.7,25.5Z" fill="#f5e0e1"/>
              <path id="Trazado_59" data-name="Trazado 59" d="M23.7,27.3a1.7,1.7,0,0,0-.7.1A.428.428,0,0,1,23.7,27.3Z" fill="#d75162"/>
              <path id="Trazado_60" data-name="Trazado 60" d="M13.5,20.7a1.7,1.7,0,0,0-.7.1A.428.428,0,0,1,13.5,20.7Z" fill="#f5e0e1"/>
              <path id="Trazado_61" data-name="Trazado 61" d="M14.5,25.6c0-.3-.1-.6-.1-.9C14.5,25,14.7,25.3,14.5,25.6Z" fill="#f5e0e1"/>
              <path id="Trazado_62" data-name="Trazado 62" d="M13.6,24.9a.713.713,0,0,1,.3.6Z" fill="#f5e0e1"/>
              <path id="Trazado_63" data-name="Trazado 63" d="M17.2,23.1c.1-.2.1-.3.2-.5C17.6,22.9,17.4,23,17.2,23.1Z" fill="#cb1a2c"/>
              <path id="Trazado_64" data-name="Trazado 64" d="M18.5,20.6c-.1.2-.3.3-.4.5C18.1,20.8,18.2,20.6,18.5,20.6Z" fill="#cb1a2c"/>
              <path id="Trazado_65" data-name="Trazado 65" d="M23.6,31.7c0,.2.1.5.1.7A.428.428,0,0,1,23.6,31.7Z" fill="#d75162"/>
              <path id="Trazado_66" data-name="Trazado 66" d="M25.1,27.4a.9.9,0,0,1-.5-.1C24.8,27.1,24.9,27.1,25.1,27.4Z" fill="#d75162"/>
              <path id="Trazado_67" data-name="Trazado 67" d="M13.9,25.6c.2,0,.3.1.5.1C14.2,25.8,14.1,25.8,13.9,25.6Z" fill="#f5e0e1"/>
              <path id="Trazado_68" data-name="Trazado 68" d="M12.4,25.6c0-.2,0-.4.2-.5C12.6,25.3,12.6,25.5,12.4,25.6Z" fill="#f5e0e1"/>
              <path id="Trazado_69" data-name="Trazado 69" d="M23,28.3c.2,0,.4-.1.5.1C23.3,28.5,23.2,28.5,23,28.3Z" fill="#d75162"/>
              <path id="Trazado_70" data-name="Trazado 70" d="M12.5,22c0,.2-.1.4-.1.6C12.4,22.4,12.5,22.2,12.5,22Z" fill="#f5e0e1"/>
              <path id="Trazado_71" data-name="Trazado 71" d="M24.5,31.3v-.5A.446.446,0,0,1,24.5,31.3Z" fill="#d75162"/>
              <path id="Trazado_72" data-name="Trazado 72" d="M14,22.8c0-.1-.1-.3-.1-.4C14,22.5,14,22.6,14,22.8Z" fill="#f5e0e1"/>
              <path id="Trazado_73" data-name="Trazado 73" d="M20.4,25.2c.1.1.1.2.2.3C20.5,25.4,20.4,25.3,20.4,25.2Z" fill="#cb1a2c"/>
              <path id="Trazado_74" data-name="Trazado 74" d="M28.2,16.2Z" fill="#55782c"/>
              <path id="Trazado_75" data-name="Trazado 75" d="M23,27.4a.349.349,0,0,1-.1.2C22.8,27.5,22.9,27.4,23,27.4Z" fill="#d75162"/>
              <path id="Trazado_76" data-name="Trazado 76" d="M22.9,28a.349.349,0,0,0,.1.2C22.8,28.3,22.8,28.2,22.9,28Z" fill="#d75162"/>
              <path id="Trazado_77" data-name="Trazado 77" d="M23.6,28.5c0,.1.1.1.1.2a.1.1,0,0,1-.1.1c0-.1-.1-.2,0-.3Z" fill="#d75162"/>
              <path id="Trazado_78" data-name="Trazado 78" d="M12.3,23c0,.1,0,.1-.1.2C12.3,23.2,12.3,23.1,12.3,23Z" fill="#f5e0e1"/>
              <path id="Trazado_79" data-name="Trazado 79" d="M24.4,32.4c0-.1,0-.2.1-.2C24.6,32.3,24.6,32.3,24.4,32.4Z" fill="#d75162"/>
              <path id="Trazado_80" data-name="Trazado 80" d="M23.7,11.7a.758.758,0,0,0-.4-.2A.758.758,0,0,1,23.7,11.7Z" fill="#f5c910"/>
              <path id="Trazado_81" data-name="Trazado 81" d="M23.7,12.6a1.421,1.421,0,0,1,.6-.2c.7.7.4,1.3-.2,1.8-1.3,1-2.7,1-3.5,0-.2-.2-.4-.4-.2-.7a1.326,1.326,0,0,1,1-.6c.3-.1.5.1.5.4a.773.773,0,0,0,.8.7.974.974,0,0,0,1-.8Q23.7,12.75,23.7,12.6Z" fill="#cc121b"/>
              <path id="Trazado_82" data-name="Trazado 82" d="M23.7,12.6v.5c-.1-.2-.1-.5-.2-.7C23.6,12.4,23.6,12.5,23.7,12.6Z" fill="#d2261d"/>
              <path id="Trazado_83" data-name="Trazado 83" d="M22.6,11.8c.2-.1.3,0,.4.1A.6.6,0,0,0,22.6,11.8Z" fill="#d2261d"/>
              <path id="Trazado_84" data-name="Trazado 84" d="M21,12.1l.2-.2Z" fill="#d2261d"/>
              <path id="Trazado_85" data-name="Trazado 85" d="M10.8,24.2a.548.548,0,0,1-.4.6c-.4,0-.4-.3-.4-.5,0-.3-.1-.7.4-.6C10.8,23.6,10.8,23.9,10.8,24.2Z" fill="#cb1a2c"/>
              <path id="Trazado_86" data-name="Trazado 86" d="M13.3,22.5a1.007,1.007,0,0,0,.1.3c-.3.3.4.7-.1,1a.247.247,0,0,1-.4-.1A.869.869,0,0,1,13.3,22.5Z" fill="#f5e0e1"/>
              <path id="Trazado_87" data-name="Trazado 87" d="M15.7,22.2c.1-.3-.1-.6.3-.6s.5.3.5.6a.548.548,0,0,1-.4.6C15.6,22.8,15.8,22.4,15.7,22.2Z" fill="#cb1a2c"/>
              <path id="Trazado_88" data-name="Trazado 88" d="M25.7,23.1c.2-.5-.3-1.5.5-1.5.7,0,.5,1,.4,1.5,0,.6.3,1.6-.5,1.6C25.4,24.7,25.9,23.6,25.7,23.1Z" fill="#cc121b"/>
              <path id="Trazado_89" data-name="Trazado 89" d="M26.9,30c-.1.5.2,1.4-.4,1.5-.8,0-.5-.9-.5-1.4,0-.6-.3-1.6.5-1.6C27.3,28.4,26.8,29.4,26.9,30Z" fill="#cc121b"/>
              <path id="Trazado_90" data-name="Trazado 90" d="M25,28c0,.3-.2.2-.4.2A.52.52,0,0,0,25,28Z" fill="#f4e8e6"/>
            </g>
          </g>
        </g>
      </g>
    </g>
  </g>
</svg>
