<svg xmlns="http://www.w3.org/2000/svg" width="19.848" height="19.849" viewBox="0 0 19.848 19.849">
  <g id="instagram" transform="translate(-11673.214 -4316.382)">
    <path id="Trazado_180" data-name="Trazado 180" d="M0,0C2.65,0,2.964.01,4.01.058A5.484,5.484,0,0,1,5.853.4a3.076,3.076,0,0,1,1.141.742,3.079,3.079,0,0,1,.743,1.141,5.517,5.517,0,0,1,.341,1.843c.048,1.046.058,1.36.058,4.01s-.01,2.964-.058,4.01a5.511,5.511,0,0,1-.341,1.843,3.071,3.071,0,0,1-.743,1.141,3.066,3.066,0,0,1-1.141.743,5.51,5.51,0,0,1-1.843.342c-1.046.047-1.36.057-4.01.057s-2.964-.01-4.01-.057a5.51,5.51,0,0,1-1.843-.342,3.066,3.066,0,0,1-1.141-.743,3.071,3.071,0,0,1-.743-1.141,5.483,5.483,0,0,1-.341-1.842c-.048-1.047-.058-1.361-.058-4.011s.01-2.964.058-4.01a5.491,5.491,0,0,1,.341-1.843,3.066,3.066,0,0,1,.743-1.141A3.076,3.076,0,0,1-5.853.4,5.484,5.484,0,0,1-4.01.058C-2.964.01-2.65,0,0,0M0-1.788c-2.695,0-3.033.011-4.092.06A7.263,7.263,0,0,0-6.5-1.267,4.854,4.854,0,0,0-8.259-.122,4.86,4.86,0,0,0-9.4,1.635a7.291,7.291,0,0,0-.462,2.409c-.048,1.059-.059,1.4-.059,4.092s.011,3.033.059,4.092A7.286,7.286,0,0,0-9.4,14.637,4.864,4.864,0,0,0-8.259,16.4,4.867,4.867,0,0,0-6.5,17.54,7.289,7.289,0,0,0-4.092,18c1.059.048,1.4.06,4.092.06s3.033-.012,4.092-.06A7.289,7.289,0,0,0,6.5,17.54,4.867,4.867,0,0,0,8.259,16.4,4.864,4.864,0,0,0,9.4,14.637a7.286,7.286,0,0,0,.462-2.409c.048-1.059.059-1.4.059-4.092S9.913,5.1,9.865,4.044A7.291,7.291,0,0,0,9.4,1.635,4.86,4.86,0,0,0,8.259-.122,4.854,4.854,0,0,0,6.5-1.267a7.263,7.263,0,0,0-2.409-.461c-1.059-.049-1.4-.06-4.092-.06" transform="translate(11683.138 4318.17)" fill="#e5007c"/>
    <path id="Trazado_181" data-name="Trazado 181" d="M0,0A5.1,5.1,0,0,0-5.1,5.1a5.1,5.1,0,0,0,5.1,5.1A5.1,5.1,0,0,0,5.1,5.1,5.1,5.1,0,0,0,0,0M0,8.4A3.308,3.308,0,0,1-3.308,5.1,3.308,3.308,0,0,1,0,1.788,3.308,3.308,0,0,1,0,8.4" transform="translate(11683.138 4321.21)" fill="#e5007c"/>
    <path id="Trazado_182" data-name="Trazado 182" d="M0,0A1.191,1.191,0,0,1-1.191,1.191,1.191,1.191,0,0,1-2.382,0,1.191,1.191,0,0,1-1.191-1.191,1.191,1.191,0,0,1,0,0" transform="translate(11689.627 4321.009)" fill="#e5007c"/>
  </g>
</svg>
