<svg xmlns="http://www.w3.org/2000/svg" width="16.11" height="16.11" viewBox="0 0 16.11 16.11">
  <g id="l1" transform="translate(-5085 539.77)">
    <path id="Trazado_631" data-name="Trazado 631" d="M0,0Q0,3.993,0,7.987c0,.05-.011.061-.061.061q-7.993,0-15.987,0c-.051,0-.062-.011-.062-.061q0-7.993,0-15.987c0-.051.011-.062.062-.062q7.994,0,15.987,0C-.01-8.062,0-8.051,0-8Q0-4,0,0M-13.558-.257q0,2.1,0,4.2c0,.053.01.072.068.072q2.953,0,5.906,0c.058,0,.069-.018.069-.072,0-.476,0-.953,0-1.429,0-.064-.012-.082-.079-.081q-2,0-4,0c-.07,0-.086-.018-.086-.087q0-3.4,0-6.8c0-.06-.014-.078-.077-.078q-.862,0-1.725,0c-.066,0-.079.018-.079.081q0,2.094,0,4.188M-3.421-.2V-4.283a.325.325,0,0,1,0-.054c0-.039-.013-.048-.05-.048q-.632,0-1.262,0c-.031,0-.042.008-.049.043a1.944,1.944,0,0,1-.274.735,1.974,1.974,0,0,1-1.291.819,3.266,3.266,0,0,1-.814.066c-.049,0-.064.01-.063.062q0,.57,0,1.14c0,.059.011.078.075.078.649,0,1.3,0,1.946,0,.1,0,.085-.013.086.085q0,2.634,0,5.268c0,.061.016.077.077.077.512,0,1.025,0,1.537,0,.066,0,.085-.013.085-.083q0-2.051,0-4.1" transform="translate(5101.109 -531.708)" fill="#fa4541"/>
    <path id="Trazado_632" data-name="Trazado 632" d="M0,0Q0-2.094,0-4.188c0-.063.013-.082.079-.082q.862,0,1.725,0c.062,0,.077.017.077.078q0,3.4,0,6.8c0,.069.016.087.086.087,1.333,0,2.667,0,4,0,.066,0,.079.018.079.081,0,.477,0,.953,0,1.43,0,.053-.011.072-.069.072q-2.953,0-5.906,0C.009,4.274,0,4.255,0,4.2Q0,2.1,0,0" transform="translate(5087.551 -531.964)" fill="#fff"/>
    <path id="Trazado_633" data-name="Trazado 633" d="M0,0Q0,2.05,0,4.1c0,.07-.019.084-.085.084q-.768,0-1.537,0c-.061,0-.077-.015-.077-.077q0-2.634,0-5.268c0-.1.012-.085-.086-.085-.649,0-1.3,0-1.946,0-.064,0-.076-.018-.076-.077,0-.38,0-.761,0-1.141,0-.052.014-.064.063-.062a3.253,3.253,0,0,0,.813-.065,1.975,1.975,0,0,0,1.292-.82,1.944,1.944,0,0,0,.274-.735c.007-.035.017-.043.049-.043H-.049c.037,0,.054.009.049.048a.486.486,0,0,0,0,.054Z" transform="translate(5097.688 -531.904)" fill="#fff"/>
  </g>
</svg>
