<svg xmlns="http://www.w3.org/2000/svg" width="134" height="89.649" viewBox="0 0 134 89.649">
  <g id="logo-mirador" transform="translate(-12685.772 -4720.649)">
    <path id="Trazado_244" data-name="Trazado 244" d="M0,0-1.925-41.336l-.1-2.51h0c-.221-5.154-3.447-8.866-7.833-8.9-4.392.026-7.628,3.738-7.855,8.9h0l-.1,2.337L-19.841-.023l-.008.163L-13.3.155l2.113-43.672.043-.785a1.317,1.317,0,0,1,.314-.812.936.936,0,0,1,.2-.185,1.241,1.241,0,0,1,.762-.262,1.252,1.252,0,0,1,.761.263,1,1,0,0,1,.195.186,1.321,1.321,0,0,1,.313.82v0l.042.814L-6.545.163H.008Z" transform="translate(12761.741 4773.397)" fill="#0028dd"/>
    <path id="Trazado_246" data-name="Trazado 246" d="M0,0-2.616,25.828l-.433,5.162-.435-5.168L-6.174,0h-7.842V51.289H-8.7V23.775l2.82,27.514H-1.1L1.867,23.667V51.289H7.622V0Z" transform="translate(12699.788 4722.054)"/>
    <path id="Trazado_247" data-name="Trazado 247" d="M26.4-36.955h6.049V-88.244H26.4Z" transform="translate(12685.772 4810.298)"/>
    <path id="Trazado_248" data-name="Trazado 248" d="M0,0V-32.516C0-40.273-3.884-41.9-7.142-41.9h-8.025V9.388h8.025C-1.239,9.388,0,4.282,0,0M-9.118,3.166V-35.606h1.682c.8,0,1.46.2,1.46,2.713V.454c0,2.508-.661,2.712-1.46,2.712Z" transform="translate(12780.887 4763.956)"/>
    <path id="Trazado_249" data-name="Trazado 249" d="M0,0C-4.407,0-7.73,3.9-7.73,9.084v34.33C-7.73,48.593-4.407,52.5,0,52.5s7.73-3.906,7.73-9.085V9.084C7.73,3.9,4.407,0,0,0M1.681,44.1c0,1.224-.628,1.955-1.681,1.955-1.084,0-1.681-.694-1.681-1.955V8.4A1.735,1.735,0,0,1,0,6.447,1.736,1.736,0,0,1,1.681,8.4Z" transform="translate(12792.642 4721.449)"/>
    <path id="Trazado_250" data-name="Trazado 250" d="M0,0A6.876,6.876,0,0,0,2.516-5.744V-18.07c0-7.584-4.841-8.4-6.922-8.4h-7.877v51.29h6.049V2.887H-4.7c.887,0,1.46.827,1.46,2.107V24.828h5.9V5.75A6.731,6.731,0,0,0,0,0M-3.46-5.366c0,1.469-.43,2.183-1.314,2.183h-1.46V-20.177h1.681c.327,0,1.093,0,1.093,1.956Z" transform="translate(12735.261 4748.527)"/>
    <path id="Trazado_251" data-name="Trazado 251" d="M0,0A6.876,6.876,0,0,0,2.516-5.744V-18.07c0-7.584-4.841-8.4-6.922-8.4h-7.877v51.29h6.049V2.887H-4.7c.888,0,1.461.827,1.461,2.107V24.828h5.9V5.75A6.731,6.731,0,0,0,0,0M-3.46-5.366c0,1.469-.43,2.183-1.314,2.183h-1.46V-20.177h1.681c.327,0,1.093,0,1.093,1.956Z" transform="translate(12817.109 4748.527)"/>
    <path id="Trazado_252" data-name="Trazado 252" d="M0,0A2.844,2.844,0,0,0,3.172,3.19a4.774,4.774,0,0,0,1.622-.266L4.9,2.886V.472L4.682.565a2.189,2.189,0,0,1-.921.172c-.59,0-.876-.319-.876-.975V-4.7H4.846V-6.912H2.885V-8.986H0v2.074H-1.2V-4.7H0Z" transform="translate(12743.086 4789.891)"/>
    <path id="Trazado_253" data-name="Trazado 253" d="M0,0V.147a4.843,4.843,0,0,0,5.063,5.06A4.878,4.878,0,0,0,10.144.092V-.055A4.852,4.852,0,0,0,5.081-5.134,4.887,4.887,0,0,0,0,0M7.206-.019V.11c0,1.75-.775,2.754-2.125,2.754S2.955,1.853,2.955.092V-.055c0-1.738.775-2.735,2.126-2.735S7.206-1.78,7.206-.019" transform="translate(12748.403 4787.893)"/>
    <path id="Trazado_254" data-name="Trazado 254" d="M0,0A2.212,2.212,0,0,1,.539-1.628,3.086,3.086,0,0,1,2.854-2.3h.16V-5.1l-.16,0A3.15,3.15,0,0,0,0-3.583V-4.95H-2.9V4.969H0Z" transform="translate(12762.418 4787.929)"/>
    <path id="Trazado_255" data-name="Trazado 255" d="M0,0A2.212,2.212,0,0,1,.539-1.628,3.085,3.085,0,0,1,2.854-2.3h.16V-5.1l-.16,0A3.15,3.15,0,0,0,0-3.583V-4.95H-2.9V4.969H0Z" transform="translate(12769.268 4787.929)"/>
    <path id="Trazado_256" data-name="Trazado 256" d="M0,0,.027-.187H-2.729l-.026.13c-.16.8-.761,1.209-1.789,1.209-1.275,0-2.034-.775-2.15-2.188H.02v-.9c0-3.718-2.431-5.042-4.707-5.042A4.838,4.838,0,0,0-9.643-1.822v.147A4.767,4.767,0,0,0-4.615,3.366C-2,3.366-.313,2.14,0,0M-4.687-4.815c1.128,0,1.739.6,1.862,1.821H-6.639A1.963,1.963,0,0,1-4.687-4.815" transform="translate(12782.126 4789.732)"/>
    <path id="Trazado_257" data-name="Trazado 257" d="M0,0H2.862a2.57,2.57,0,0,1-2.9,2.445c-2.951,0-3.391-2.622-3.391-4.185v-.147c0-2.643,1.254-4.221,3.355-4.221a2.312,2.312,0,0,1,2.609,2.1l.022.136h3.18L5.72-4.049C5.443-7.012,3.264-8.782-.11-8.782A6.535,6.535,0,0,0-6.76-1.923v.146c0,4.155,2.61,6.84,6.65,6.84,3.794,0,6.152-2.3,6.152-6V-2.489H0Z" transform="translate(12749.026 4805.235)"/>
    <path id="Trazado_259" data-name="Trazado 259" d="M70.461-.2h2.885V-14.469H70.461Z" transform="translate(12685.772 4810.298)"/>
    <path id="Trazado_260" data-name="Trazado 260" d="M0,0A4.887,4.887,0,0,0-5.081,5.134V5.28A4.843,4.843,0,0,0-.017,10.341a4.878,4.878,0,0,0,5.08-5.115V5.079A4.852,4.852,0,0,0,0,0M2.125,5.244C2.125,6.994,1.351,8,0,8S-2.125,6.987-2.125,5.226V5.079c0-1.739.775-2.736,2.125-2.736S2.125,3.354,2.125,5.116Z" transform="translate(12765.221 4799.957)"/>
    <path id="Trazado_262" data-name="Trazado 262" d="M0,0,2.062,3.242H4.245L3.115,0Z" transform="translate(12762.217 4795.958)"/>
    <path id="Trazado_263" data-name="Trazado 263" d="M0,0V-1.366H-2.9V8.552H0V3.584A2.211,2.211,0,0,1,.54,1.955a3.1,3.1,0,0,1,2.314-.666h.16v-2.8h-.16A3.149,3.149,0,0,0,0,0" transform="translate(12774.155 4801.543)"/>
    <path id="Trazado_265" data-name="Trazado 265" d="M92.4-.2h2.885v-9.919H92.4Z" transform="translate(12685.772 4810.298)"/>
    <path id="Trazado_266" data-name="Trazado 266" d="M0,0A1.6,1.6,0,0,0-1.62,1.612,1.6,1.6,0,0,0,0,3.224,1.59,1.59,0,0,0,1.639,1.612,1.59,1.59,0,0,0,0,0" transform="translate(12779.598 4795.976)"/>
    <path id="Trazado_267" data-name="Trazado 267" d="M0,0C-.16.8-.762,1.209-1.789,1.209c-1.275,0-2.034-.775-2.15-2.187H2.775v-.9c0-3.718-2.431-5.043-4.707-5.043A4.839,4.839,0,0,0-6.888-1.765v.147A4.767,4.767,0,0,0-1.86,3.424c2.621,0,4.3-1.227,4.615-3.367L2.782-.13H.026ZM-1.932-4.758c1.128,0,1.738.6,1.862,1.821H-3.884A1.963,1.963,0,0,1-1.932-4.758" transform="translate(12788.985 4806.874)"/>
    <path id="Trazado_268" data-name="Trazado 268" d="M0,0H0C-1.417-.211-1.666-.453-1.666-.884c0-.511.445-.828,1.162-.828.8,0,1.175.3,1.308,1.022l.024.133H3.506l-.019-.18C3.269-2.805,1.921-3.854-.522-3.854c-1.916,0-3.851.975-3.851,3.153,0,1.916.936,2.741,3.578,3.151,1.476.223,1.756.515,1.756.976,0,.219,0,.883-1.305.883-.947,0-1.377-.352-1.484-1.216l-.018-.142H-4.558l.008.171C-4.458,5.26-2.919,6.487-.326,6.487S3.756,5.278,3.756,3.17C3.756.988,2.379.355,0,0" transform="translate(12796.654 4803.811)"/>
  </g>
</svg>
