<svg xmlns="http://www.w3.org/2000/svg" width="105.515" height="15.729" viewBox="0 0 105.515 15.729">
  <g id="logos_footer_MEDIAPROEXHIBITIONS" transform="translate(-4.085 -12.085)">
    <g id="Grupo_18" data-name="Grupo 18">
      <g id="Grupo_15" data-name="Grupo 15">
        <path id="Trazado_109" data-name="Trazado 109" d="M14.1,19.9l5.1-5.1a4.7,4.7,0,0,0-.9-1.2,4.229,4.229,0,0,0-6.4-.1L5.5,19.9a4.229,4.229,0,0,0,.1,6.4,4.229,4.229,0,0,0,6.4.1l1.3-1.3c-1.2-1.8-.7-3.7.8-5.2" fill="#fff"/>
      </g>
      <g id="Grupo_16" data-name="Grupo 16">
        <path id="Trazado_110" data-name="Trazado 110" d="M22.7,19.9l5.1-5.1a4.7,4.7,0,0,0-.9-1.2,4.229,4.229,0,0,0-6.4-.1l-1.3,1.3a4.1,4.1,0,0,1-.8,5.2l-5.1,5.1a4.7,4.7,0,0,0,.9,1.2,4.229,4.229,0,0,0,6.4.1l1.3-1.3c-1.2-1.8-.7-3.7.8-5.2" fill="#fff"/>
      </g>
      <g id="Grupo_17" data-name="Grupo 17">
        <path id="Trazado_111" data-name="Trazado 111" d="M35.5,13.6a4.229,4.229,0,0,0-6.4-.1l-1.3,1.3a4.2,4.2,0,0,1,.6,2.1A4.436,4.436,0,0,1,27,20l-5.1,5.1a4.7,4.7,0,0,0,.9,1.2,4.229,4.229,0,0,0,6.4.1L35.6,20c1.7-1.7,2.1-4.1-.1-6.4" fill="#fff"/>
      </g>
    </g>
    <path id="Trazado_112" data-name="Trazado 112" d="M41.3,13h.8l1.4,2.1L44.8,13h.8v4.4h-.7V14.2l-1.4,2.1h0l-1.4-2.1v3.2h-.8Z" fill="#fff"/>
    <path id="Trazado_113" data-name="Trazado 113" d="M47.1,13h3.3v.7H47.9v1.1h2.2v.7H47.9v1.2h2.5v.7H47.1Z" fill="#fff"/>
    <g id="Grupo_20" data-name="Grupo 20">
      <g id="Grupo_19" data-name="Grupo 19">
        <path id="Trazado_114" data-name="Trazado 114" d="M53.4,16.7a1.268,1.268,0,0,0,.6-.1c.2-.1.3-.2.5-.3a2.186,2.186,0,0,0,.3-.5,1.268,1.268,0,0,0,.1-.6h0a1.268,1.268,0,0,0-.1-.6c-.1-.2-.2-.3-.3-.5a2.186,2.186,0,0,0-.5-.3,1.268,1.268,0,0,0-.6-.1h-.9v3ZM51.7,13h1.6a2.388,2.388,0,0,1,.9.2,1.794,1.794,0,0,1,.7.5,1.794,1.794,0,0,1,.5.7,2.92,2.92,0,0,1,.2.9h0a2.92,2.92,0,0,1-.2.9,1.794,1.794,0,0,1-.5.7,3.039,3.039,0,0,1-.7.5,2.92,2.92,0,0,1-.9.2H51.7Z" fill="#fff"/>
      </g>
    </g>
    <rect id="Rectángulo_15" data-name="Rectángulo 15" width="0.8" height="4.4" transform="translate(57.1 13)" fill="#fff"/>
    <path id="Trazado_115" data-name="Trazado 115" d="M62.1,15.6l-.8-1.8-.8,1.8ZM61,13h.7l1.9,4.4h-.8l-.4-1.1H60.3l-.5,1.1H59Z" fill="#fff"/>
    <g id="Grupo_24" data-name="Grupo 24">
      <g id="Grupo_21" data-name="Grupo 21">
        <path id="Trazado_116" data-name="Trazado 116" d="M66.4,15.3a1.445,1.445,0,0,0,.7-.2.6.6,0,0,0,.3-.6h0a.6.6,0,0,0-.3-.6,1.445,1.445,0,0,0-.7-.2h-.9v1.6ZM64.7,13h1.7a1.483,1.483,0,0,1,.7.1,2.186,2.186,0,0,1,.5.3.85.85,0,0,1,.3.5,1.268,1.268,0,0,1,.1.6h0a1.7,1.7,0,0,1-.1.7,1.756,1.756,0,0,1-.4.5,3.329,3.329,0,0,1-.6.3,1.483,1.483,0,0,1-.7.1h-.9v1.4h-.8V13Z" fill="#fff"/>
      </g>
      <g id="Grupo_22" data-name="Grupo 22">
        <path id="Trazado_117" data-name="Trazado 117" d="M71.2,15.2a1.445,1.445,0,0,0,.7-.2c.2-.1.2-.3.2-.5h0a.764.764,0,0,0-.2-.5,1.445,1.445,0,0,0-.7-.2H70.1v1.5h1.1ZM69.3,13h2a1.483,1.483,0,0,1,.7.1,2.186,2.186,0,0,1,.5.3c.1.1.2.3.3.4a.9.9,0,0,1,.1.5h0a1.4,1.4,0,0,1-.3.9,1.578,1.578,0,0,1-.8.5L73,17.4h-.9L71,15.9H70v1.5h-.8V13Z" fill="#fff"/>
      </g>
      <g id="Grupo_23" data-name="Grupo 23">
        <path id="Trazado_118" data-name="Trazado 118" d="M76.4,16.8a1.268,1.268,0,0,0,.6-.1c.2-.1.3-.2.5-.3a2.186,2.186,0,0,0,.3-.5,1.268,1.268,0,0,0,.1-.6h0a1.268,1.268,0,0,0-.1-.6,2.186,2.186,0,0,0-.3-.5.85.85,0,0,0-.5-.3,1.85,1.85,0,0,0-1.2,0c-.2.1-.3.2-.5.3a2.186,2.186,0,0,0-.3.5,1.268,1.268,0,0,0-.1.6h0a1.268,1.268,0,0,0,.1.6,2.186,2.186,0,0,0,.3.5.85.85,0,0,0,.5.3,3.536,3.536,0,0,0,.6.1m-.1.7a2.388,2.388,0,0,1-.9-.2,1.794,1.794,0,0,1-.7-.5,1.794,1.794,0,0,1-.5-.7,2.92,2.92,0,0,1-.2-.9h0a2.92,2.92,0,0,1,.2-.9,1.794,1.794,0,0,1,.5-.7,1.794,1.794,0,0,1,.7-.5,2.92,2.92,0,0,1,.9-.2,2.388,2.388,0,0,1,.9.2,1.794,1.794,0,0,1,.7.5,1.794,1.794,0,0,1,.5.7,2.92,2.92,0,0,1,.2.9h0a2.92,2.92,0,0,1-.2.9,1.794,1.794,0,0,1-.5.7,1.794,1.794,0,0,1-.7.5,2,2,0,0,1-.9.2" fill="#fff"/>
      </g>
    </g>
    <path id="Trazado_119" data-name="Trazado 119" d="M41.5,19.7h4.9V21H42.9v1.3H46v1.3H42.9V25h3.6v1.3h-5Z" fill="#fff"/>
    <path id="Trazado_120" data-name="Trazado 120" d="M50.1,22.9l-2.2-3.2h1.7L51,21.8l1.4-2.1H54l-2.2,3.2,2.3,3.4H52.4L50.9,24l-1.5,2.3H47.8Z" fill="#fff"/>
    <path id="Trazado_121" data-name="Trazado 121" d="M55.7,19.7h1.5v2.6h2.6V19.7h1.5v6.6H59.8V23.6H57.2v2.7H55.7Z" fill="#fff"/>
    <rect id="Rectángulo_16" data-name="Rectángulo 16" width="1.4" height="6.6" transform="translate(63.5 19.7)" fill="#fff"/>
    <g id="Grupo_26" data-name="Grupo 26">
      <g id="Grupo_25" data-name="Grupo 25">
        <path id="Trazado_122" data-name="Trazado 122" d="M70.2,25a1.884,1.884,0,0,0,.8-.2.55.55,0,0,0,.3-.5h0a.55.55,0,0,0-.3-.5,1.549,1.549,0,0,0-.8-.2H68.5V25Zm-.3-2.6a1.884,1.884,0,0,0,.8-.2.55.55,0,0,0,.3-.5h0a.764.764,0,0,0-.2-.5A1.2,1.2,0,0,0,70,21H68.6v1.4Zm-2.8-2.7h3a2.2,2.2,0,0,1,1.7.6,1.5,1.5,0,0,1,.4,1.1h0a1.222,1.222,0,0,1-.3.9,2.651,2.651,0,0,1-.6.5,2.186,2.186,0,0,1,.5.3,1.381,1.381,0,0,1,.4.3.758.758,0,0,1,.2.4,1.268,1.268,0,0,1,.1.6h0a1.884,1.884,0,0,1-.2.8,2.651,2.651,0,0,1-.5.6,1.909,1.909,0,0,1-.8.3,3.083,3.083,0,0,1-1,.1H66.9V19.7h.2Z" fill="#fff"/>
      </g>
    </g>
    <rect id="Rectángulo_17" data-name="Rectángulo 17" width="1.4" height="6.6" transform="translate(74.5 19.7)" fill="#fff"/>
    <path id="Trazado_123" data-name="Trazado 123" d="M79.7,21h-2V19.7h5.4V21h-2v5.3H79.7Z" fill="#fff"/>
    <rect id="Rectángulo_18" data-name="Rectángulo 18" width="1.4" height="6.6" transform="translate(84.9 19.7)" fill="#fff"/>
    <g id="Grupo_28" data-name="Grupo 28">
      <g id="Grupo_27" data-name="Grupo 27">
        <path id="Trazado_124" data-name="Trazado 124" d="M91.7,25.1a1.884,1.884,0,0,0,.8-.2c.2-.1.4-.3.6-.4a1.612,1.612,0,0,0,.4-.7,1.949,1.949,0,0,0,.1-.8h0a2.2,2.2,0,0,0-.1-.8,2.506,2.506,0,0,0-.4-.7,2.092,2.092,0,0,0-.6-.4,1.7,1.7,0,0,0-1.6,0,3.112,3.112,0,0,0-.6.4,1.612,1.612,0,0,0-.4.7,1.949,1.949,0,0,0-.1.8h0a2.2,2.2,0,0,0,.1.8,1.612,1.612,0,0,0,.4.7,2.092,2.092,0,0,0,.6.4,2.354,2.354,0,0,0,.8.2m0,1.3a3.194,3.194,0,0,1-1.4-.3,4.129,4.129,0,0,1-1.1-.7,2.589,2.589,0,0,1-.7-1.1,2.768,2.768,0,0,1-.3-1.3h0a2.768,2.768,0,0,1,.3-1.3,4.129,4.129,0,0,1,.7-1.1,2.589,2.589,0,0,1,1.1-.7,3.417,3.417,0,0,1,2.8,0,4.129,4.129,0,0,1,1.1.7,4.129,4.129,0,0,1,.7,1.1,2.768,2.768,0,0,1,.3,1.3h0a2.768,2.768,0,0,1-.3,1.3,4.129,4.129,0,0,1-.7,1.1,2.589,2.589,0,0,1-1.1.7,3.194,3.194,0,0,1-1.4.3" fill="#fff"/>
      </g>
    </g>
    <path id="Trazado_125" data-name="Trazado 125" d="M97,19.7h1.4l3.1,4v-4h1.4v6.6h-1.2l-3.2-4.2v4.2H97Z" fill="#fff"/>
    <g id="Grupo_30" data-name="Grupo 30">
      <g id="Grupo_29" data-name="Grupo 29">
        <path id="Trazado_126" data-name="Trazado 126" d="M107.4,26.4a4.013,4.013,0,0,1-1.5-.3,3.528,3.528,0,0,1-1.3-.8l.9-1,.9.6a3.553,3.553,0,0,0,1,.2,1.445,1.445,0,0,0,.7-.2c.2-.1.2-.3.2-.5h0c0-.1,0-.2-.1-.2,0-.1-.1-.1-.2-.2s-.2-.1-.4-.2a6.373,6.373,0,0,0-.7-.2l-.9-.3a1.612,1.612,0,0,1-.7-.4.918.918,0,0,1-.4-.6,1.884,1.884,0,0,1-.2-.8h0a1.884,1.884,0,0,1,.2-.8,2.651,2.651,0,0,1,.5-.6,1.612,1.612,0,0,1,.7-.4,2.769,2.769,0,0,1,.9-.1,5.067,5.067,0,0,1,1.3.2,2.384,2.384,0,0,1,1.1.6l-.8,1.1a4.053,4.053,0,0,0-.9-.5,3.091,3.091,0,0,0-.8-.2.845.845,0,0,0-.6.2.52.52,0,0,0-.2.4h0a.367.367,0,0,0,.1.3c0,.1.1.1.2.2s.3.1.4.2a6.373,6.373,0,0,0,.7.2l.9.3a1.612,1.612,0,0,1,.7.4,1.756,1.756,0,0,1,.4.5,1.7,1.7,0,0,1,.1.7h0a2.92,2.92,0,0,1-.2.9,1.024,1.024,0,0,1-.5.6,2.01,2.01,0,0,1-.8.4.779.779,0,0,1-.7.3" fill="#fff"/>
      </g>
    </g>
  </g>
</svg>
