<svg xmlns="http://www.w3.org/2000/svg" width="20.08" height="12.321" viewBox="0 0 20.08 12.321">
  <path id="icones_footer-02" data-name="icones footer-02" d="M16.28,8.84c-4.68,0-8.34,2.29-8.34,5.21,0,1.51,1,2.9,2.74,3.88a11.93,11.93,0,0,1-3.15,1.43l-2.95.75,3,.7a12.51,12.51,0,0,0,2.87.35,9.86,9.86,0,0,0,5.92-1.9c4.66,0,8.29-2.3,8.29-5.21S21,8.84,16.28,8.84Zm-3.67,9.48.87-.82-1.11-.43c-1.84-.71-2.93-1.84-2.93-3,0-2,3.13-3.71,6.84-3.71s6.84,1.7,6.84,3.71S20,17.76,16.29,17.76h-.45l-.21.16a8.25,8.25,0,0,1-4.91,1.75A9.49,9.49,0,0,0,12.61,18.32Z" transform="translate(-4.58 -8.84)" fill="#e4037d"/>
</svg>
