<svg xmlns="http://www.w3.org/2000/svg" width="25.921" height="19.434" viewBox="0 0 25.921 19.434">
  <g id="metro" transform="translate(-4872 542.849)">
    <path id="Trazado_616" data-name="Trazado 616" d="M0,0H.013A1.813,1.813,0,0,1,.4.261c.737.544,1.469,1.1,2.2,1.647L4.9,3.633,7.212,5.368,9.564,7.129l2.567,1.925.771.579a.106.106,0,0,1,.054.09A.144.144,0,0,1,12.9,9.8q-.719.542-1.439,1.079-.92.692-1.842,1.382c-.677.507-1.354,1.017-2.034,1.524-.65.484-1.3.973-1.946,1.459L3.386,16.931l-2.1,1.576C.891,18.8.5,19.1.1,19.391a.131.131,0,0,1-.2,0c-.411-.305-.817-.614-1.228-.919-.717-.532-1.429-1.071-2.144-1.605-.352-.263-.7-.529-1.056-.791-.7-.521-1.4-1.047-2.1-1.571-.389-.29-.775-.583-1.165-.873-.717-.531-1.428-1.07-2.144-1.6-.352-.264-.7-.53-1.056-.791-.628-.467-1.253-.939-1.88-1.408a.352.352,0,0,1-.1-.1V9.711a.227.227,0,0,1,.083-.1q1.8-1.345,3.6-2.693Q-7.6,5.653-5.905,4.389L-3.653,2.7c.992-.739,1.98-1.486,2.972-2.226C-.5.339-.318.2-.138.065A.484.484,0,0,1,0,0" transform="translate(4884.964 -542.849)" fill="#ff3832"/>
    <path id="Trazado_617" data-name="Trazado 617" d="M0,0,.47-1.66q.509-1.8,1.014-3.592c.014-.049.036-.06.085-.06H4.8c.065,0,.081.013.081.08q0,4.066,0,8.135c0,.088,0,.177,0,.265,0,.055-.014.067-.068.067q-1.156,0-2.314,0c-.135,0-.135,0-.135-.134q0-1.053,0-2.106c0-.564.018-1.128.041-1.692.013-.344.06-.688.092-1.032l.045-.477a.355.355,0,0,0,0-.046c-.031.011-.029.035-.034.054Q1.747.483.99,3.166c-.014.051-.034.07-.09.069q-.907,0-1.816,0A.07.07,0,0,1-1,3.173Q-1.754.5-2.514-2.179c-.007-.023-.005-.052-.028-.07-.025.01-.011.03-.01.044.036.4.077.791.109,1.187.018.226.023.453.034.68.055,1.172.016,2.346.029,3.519,0,.041-.01.054-.053.054H-4.845c-.052,0-.052-.022-.052-.061q0-.977,0-1.952,0-3.223,0-6.449c0-.065.011-.086.082-.086q1.609,0,3.221,0c.069,0,.09.023.107.084Q-.758-2.64-.024-.051A.1.1,0,0,0,0,0" transform="translate(4884.974 -532.093)" fill="#fff"/>
  </g>
</svg>
