<svg xmlns="http://www.w3.org/2000/svg" width="16.82" height="15.87" viewBox="0 0 16.82 15.87">
  <g id="icones_footer-03" data-name="icones footer-03" transform="translate(-6.59 -6.94)">
    <path id="Trazado_268" data-name="Trazado 268" d="M19,12.38V6.94H6.59V20.47a2.34,2.34,0,0,0,2.34,2.34H21.16a2.25,2.25,0,0,0,2.25-2.25V12.38Zm-1.37,8.93H8.93a.84.84,0,0,1-.84-.84v-12h9.39V20.56a2.11,2.11,0,0,0,.13.75Zm3.55,0H19.73a.76.76,0,0,1-.75-.75V13.88h2.93v6.68a.75.75,0,0,1-.75.75Z" fill="#e4037d"/>
    <rect id="Rectángulo_44" data-name="Rectángulo 44" width="5.47" height="1.25" transform="translate(9.79 11.07)" fill="#e4037d"/>
    <rect id="Rectángulo_45" data-name="Rectángulo 45" width="5.47" height="1.25" transform="translate(9.79 14.25)" fill="#e4037d"/>
    <rect id="Rectángulo_46" data-name="Rectángulo 46" width="5.47" height="1.25" transform="translate(9.79 17.44)" fill="#e4037d"/>
  </g>
</svg>
