<svg xmlns="http://www.w3.org/2000/svg" width="15.732" height="15.521" viewBox="0 0 15.732 15.521">
  <g id="tram" transform="translate(-4876.453 465.993)">
    <path id="Trazado_618" data-name="Trazado 618" d="M0,0V5.938A.036.036,0,0,1-.036,5.93a.345.345,0,0,1-.04-.035c-.372-.382-.761-.746-1.137-1.124-.42-.423-.848-.839-1.273-1.256-.3-.3-.593-.6-.9-.889s-.59-.59-.892-.878c-.138-.131-.272-.265-.408-.4-.049-.047-.059-.047-.108,0-.016.015-.031.031-.046.047L-9.761,6.316c-.765.758-1.524,1.522-2.289,2.28a.2.2,0,0,0-.057.067.087.087,0,0,0,.061.01c1.981,0,3.962.012,5.943,0,2.005-.015,4.01,0,6.015-.009A.119.119,0,0,1,0,8.678c0,.008.013.028-.013.026s-.031,0-.046,0H-15.671c-.049,0-.06-.011-.06-.06q0-1.845,0-3.69a.324.324,0,0,1,.056-.072c1.46-1.459,2.914-2.923,4.381-4.376.938-.929,1.866-1.866,2.8-2.794.065-.066.065-.066,0-.132-.43-.429-.854-.863-1.279-1.3-.289-.293-.584-.577-.866-.876s-.6-.6-.891-.9-.6-.591-.883-.9c-.128-.137-.266-.264-.388-.407a.017.017,0,0,1,0-.017H-6.8a.07.07,0,0,0,.024.013c.184.174.356.36.54.535.493.468.962.959,1.447,1.434,1.22,1.191,2.414,2.406,3.619,3.611.23.229.462.458.684.7.149.159.307.31.452.474A.63.63,0,0,1,0,0" transform="translate(4892.184 -459.177)" fill="#fff"/>
    <path id="Trazado_619" data-name="Trazado 619" d="M0,0-6.12,0H-6.2c-.005-.028.015-.036.026-.047L1.172-7.369c.043-.043.061-.022.091.008l4.658,4.59.029.026V0q-.033,0-.066,0H3.958" transform="translate(4886.234 -450.494)" fill="#289a88"/>
    <path id="Trazado_620" data-name="Trazado 620" d="M0,0,1.151,1.165,4.334,4.393c.048.049.045.072,0,.118Q.712,8.118-2.9,11.729l-.034.031c0-.088.007-.73.007-.879V.094c0-.1,0-.1.1-.1H-.29C-.194,0-.1-.011,0,0" transform="translate(4879.392 -465.982)" fill="#289a88"/>
    <path id="Trazado_621" data-name="Trazado 621" d="M0,0C-.016,0-.021-.013-.03-.022c-.864-.914-1.757-1.8-2.647-2.688Q-4.71-4.735-6.747-6.754c-.015-.016-.029-.033-.043-.049a.143.143,0,0,1,.071-.006H-.254A1.954,1.954,0,0,1,0-6.8Z" transform="translate(4892.184 -459.177)" fill="#289a88"/>
  </g>
</svg>
