<svg xmlns="http://www.w3.org/2000/svg" width="21.349" height="18" viewBox="0 0 21.349 18">
  <g id="twitter" transform="translate(-11640.534 -4317.306)">
    <path id="Trazado_179" data-name="Trazado 179" d="M0,0C8.057,0,12.463-6.924,12.463-12.929c0-.2,0-.392-.013-.587a9.112,9.112,0,0,0,2.185-2.353,8.49,8.49,0,0,1-2.515.715,4.535,4.535,0,0,0,1.926-2.513,8.613,8.613,0,0,1-2.781,1.1A4.3,4.3,0,0,0,8.067-18a4.465,4.465,0,0,0-4.38,4.544A4.712,4.712,0,0,0,3.8-12.42a12.292,12.292,0,0,1-9.028-4.748,4.657,4.657,0,0,0-.594,2.284A4.586,4.586,0,0,0-3.872-11.1a4.212,4.212,0,0,1-1.984-.568c0,.019,0,.038,0,.058A4.508,4.508,0,0,0-2.343-7.157,4.239,4.239,0,0,1-3.5-7a4.215,4.215,0,0,1-.823-.082A4.408,4.408,0,0,0-.229-3.923a8.59,8.59,0,0,1-5.44,1.945,8.586,8.586,0,0,1-1.045-.063A12.074,12.074,0,0,0,0,0" transform="translate(11647.248 4335.306)" fill="#e5007c"/>
  </g>
</svg>
